<?xml version="1.0" encoding="utf-8"?>
<!-- Generator: Adobe Illustrator 16.0.0, SVG Export Plug-In . SVG Version: 6.00 Build 0)  -->
<!DOCTYPE svg PUBLIC "-//W3C//DTD SVG 1.1//EN" "http://www.w3.org/Graphics/SVG/1.1/DTD/svg11.dtd">
<svg version="1.1" id="Layer_1" xmlns="http://www.w3.org/2000/svg" xmlns:xlink="http://www.w3.org/1999/xlink" x="0px" y="0px"
	 width="1000px" height="853.695px" viewBox="0 0 1000 853.695" enable-background="new 0 0 1000 853.695" xml:space="preserve">
<path fill="#ED1C27" d="M0,0c0,0,0,420.945,0,457.57c71.352-133.852,187.55-310.4,999.86,91.21
	c-33.69-38.17-224.75-146.93-433.28-258.66C336.06,166.61,84.2,39.46,0,0z"/>
<path fill="#231F1F" d="M204.28,345.03C501.26,303.89,954.491,539.085,1000,583c0,77.667-0.14,190.631,0,270.695
	c-139,0-905.333,0-1000,0c0-18,0-325.935,0-325.935C4,509.07,45.854,376.215,204.28,345.03z"/>
</svg>
