<?xml version="1.0" encoding="utf-8"?>
<!-- Generator: Adobe Illustrator 16.0.0, SVG Export Plug-In . SVG Version: 6.00 Build 0)  -->
<!DOCTYPE svg PUBLIC "-//W3C//DTD SVG 1.1//EN" "http://www.w3.org/Graphics/SVG/1.1/DTD/svg11.dtd">
<svg version="1.1" id="Layer_1" xmlns="http://www.w3.org/2000/svg" xmlns:xlink="http://www.w3.org/1999/xlink" x="0px" y="0px"
	 width="1000px" height="782.029px" viewBox="0 0 1000 782.029" enable-background="new 0 0 1000 782.029" xml:space="preserve">
<path fill="#FFFFFF" d="M1000,233.334v549.56H0v-383c0,0,208.31-101.8,433.42-153.44c131.87-30.25,269.5-50.84,374.41-16.12
	C848,194.334,972.27,221.064,1000,233.334z"/>
<path fill="#ED1C27" d="M1000,0c0,0,0,329.854,0,358.553c-55.912-104.887-146.964-243.23-783.492,71.472
	c26.399-29.91,176.114-115.135,339.519-202.687C736.663,130.556,934.021,30.921,1000,0z"/>
<path fill="#231F1F" d="M839.926,270.366c-232.714-32.238-601.078,171.169-601.078,171.169
	c218.359-36.249,646.377,70.332,761.152,205.48c0-0.906,0-233.462,0-233.462C996.865,398.908,964.069,294.803,839.926,270.366z"/>
</svg>
