<?xml version="1.0" encoding="utf-8"?>
<!-- Generator: Adobe Illustrator 16.0.0, SVG Export Plug-In . SVG Version: 6.00 Build 0)  -->
<!DOCTYPE svg PUBLIC "-//W3C//DTD SVG 1.1//EN" "http://www.w3.org/Graphics/SVG/1.1/DTD/svg11.dtd">
<svg version="1.1" id="Layer_1" xmlns="http://www.w3.org/2000/svg" xmlns:xlink="http://www.w3.org/1999/xlink" x="0px" y="0px"
	 width="1366px" height="1008.273px" viewBox="-183 -40.652 1366 1008.273" enable-background="new -183 -40.652 1366 1008.273"
	 xml:space="preserve">
<path fill="#ED1C27" d="M-183.019-40.652c0,0,0,506.958,0,551.067C-97.087,349.212,42.854,136.59,1021.147,620.263
	c-40.575-45.97-270.674-176.953-521.814-311.514C221.71,160.002-81.613,6.871-183.019-40.652z"/>
<path fill="#231F1F" d="M63.003,374.879c357.662-49.546,1065.208,306.291,1120.016,359.179c0,93.537-0.168,137.139,0,233.563
	c-167.402,0-1252.026,0-1366.037,0c0-21.678,0-372.675,0-372.675C-178.201,572.438-127.795,412.437,63.003,374.879z"/>
</svg>
